<svg width="49" height="48" viewBox="0 0 49 48" fill="none" xmlns="http://www.w3.org/2000/svg">
<path d="M24.4805 13.0484C26.2505 13.0484 27.4087 13.0614 27.9554 13.0874C28.528 13.0874 29.1657 13.1005 29.8685 13.1265C30.5192 13.1785 31.0268 13.2566 31.3912 13.3607C31.7816 13.4388 32.094 13.5169 32.3282 13.595C32.6406 13.7252 32.9139 13.8683 33.1481 14.0245C33.4084 14.1807 33.6557 14.3759 33.89 14.6101C34.1242 14.8444 34.3064 15.0787 34.4366 15.3129C34.5927 15.5472 34.7359 15.8205 34.866 16.1328C34.9702 16.3671 35.0613 16.6794 35.1393 17.0699C35.2435 17.4343 35.3085 17.9418 35.3346 18.5926C35.3606 19.2953 35.3736 19.9331 35.3736 20.5057C35.3996 21.0523 35.4126 22.2106 35.4126 23.9806C35.4126 25.7766 35.3996 26.9479 35.3736 27.4945C35.3736 28.0411 35.3606 28.6658 35.3346 29.3686C35.3085 30.0193 35.2435 30.5399 35.1393 30.9303C35.0613 31.3207 34.9702 31.6331 34.866 31.8673C34.7359 32.1537 34.5927 32.427 34.4366 32.6872C34.3064 32.9215 34.1242 33.1558 33.89 33.39C33.6557 33.6243 33.4084 33.8195 33.1481 33.9757C32.9139 34.1319 32.6406 34.262 32.3282 34.3661C32.094 34.4702 31.7816 34.5743 31.3912 34.6785C31.0268 34.7565 30.5192 34.8086 29.8685 34.8346C29.1657 34.8607 28.528 34.8867 27.9554 34.9127C27.4087 34.9127 26.2505 34.9127 24.4805 34.9127C22.7105 34.9127 21.5392 34.9127 20.9666 34.9127C20.42 34.8867 19.7953 34.8607 19.0925 34.8346C18.4418 34.8086 17.9212 34.7565 17.5308 34.6785C17.1663 34.5743 16.867 34.4702 16.6328 34.3661C16.3204 34.262 16.0341 34.1319 15.7738 33.9757C15.5395 33.8195 15.3053 33.6243 15.071 33.39C14.8368 33.1558 14.6415 32.9215 14.4854 32.6872C14.3552 32.427 14.2251 32.1537 14.0949 31.8673C13.9908 31.607 13.8867 31.2947 13.7826 30.9303C13.7045 30.5399 13.6524 30.0193 13.6264 29.3686C13.6004 28.6658 13.5744 28.0411 13.5483 27.4945C13.5483 26.9479 13.5483 25.7766 13.5483 23.9806C13.5483 22.2106 13.5483 21.0523 13.5483 20.5057C13.5744 19.9331 13.6004 19.2953 13.6264 18.5926C13.6524 17.9418 13.7045 17.4343 13.7826 17.0699C13.8867 16.6794 13.9908 16.3671 14.0949 16.1328C14.2251 15.8205 14.3552 15.5472 14.4854 15.3129C14.6415 15.0787 14.8368 14.8444 15.071 14.6101C15.3053 14.3759 15.5395 14.1807 15.7738 14.0245C16.0341 13.8683 16.3204 13.7252 16.6328 13.595C16.867 13.5169 17.1663 13.4388 17.5308 13.3607C17.9212 13.2566 18.4418 13.1785 19.0925 13.1265C19.7953 13.1005 20.42 13.0874 20.9666 13.0874C21.5392 13.0614 22.7105 13.0484 24.4805 13.0484ZM24.4805 10.6667C22.6585 10.6667 21.4611 10.6798 20.8885 10.7058C20.3419 10.7058 19.7042 10.7188 18.9754 10.7448C18.2726 10.7709 17.6609 10.8359 17.1403 10.9401C16.6458 11.0442 16.1772 11.1873 15.7348 11.3695C15.3183 11.5257 14.9148 11.7339 14.5244 11.9942C14.134 12.2285 13.7566 12.5278 13.3921 12.8922C13.0277 13.2566 12.7154 13.634 12.4551 14.0245C12.2208 14.4149 12.0256 14.8314 11.8695 15.2739C11.6873 15.6903 11.5441 16.1589 11.44 16.6794C11.3359 17.174 11.2708 17.7727 11.2448 18.4754C11.1927 19.2042 11.1667 19.855 11.1667 20.4276C11.1667 21.0002 11.1667 22.1846 11.1667 23.9806C11.1667 25.8026 11.1667 26.9999 11.1667 27.5726C11.1667 28.1452 11.1927 28.7829 11.2448 29.4857C11.2708 30.1885 11.3359 30.8001 11.44 31.3207C11.5441 31.8153 11.6873 32.2838 11.8695 32.7263C12.0256 33.1688 12.2208 33.5852 12.4551 33.9757C12.7154 34.3401 13.0277 34.7045 13.3921 35.0689C13.7566 35.4333 14.134 35.7456 14.5244 36.0059C14.9148 36.2402 15.3183 36.4484 15.7348 36.6306C16.1772 36.7868 16.6458 36.917 17.1403 37.0211C17.6609 37.1252 18.2726 37.1903 18.9754 37.2163C19.7042 37.2683 20.3419 37.3074 20.8885 37.3334C21.4611 37.3334 22.6585 37.3334 24.4805 37.3334C26.3025 37.3334 27.4868 37.3334 28.0334 37.3334C28.6061 37.3074 29.2568 37.2814 29.9856 37.2553C30.6884 37.2033 31.2871 37.1252 31.7816 37.0211C32.3022 36.917 32.7837 36.7868 33.2262 36.6306C33.6427 36.4484 34.0461 36.2402 34.4366 36.0059C34.827 35.7456 35.2044 35.4333 35.5688 35.0689C35.9332 34.7045 36.2326 34.3401 36.4668 33.9757C36.7271 33.5852 36.9353 33.1688 37.0915 32.7263C37.2737 32.3098 37.4169 31.8413 37.521 31.3207C37.6251 30.8001 37.6902 30.1885 37.7162 29.4857C37.7683 28.7829 37.7943 28.1452 37.7943 27.5726C37.7943 26.9999 37.7943 25.8026 37.7943 23.9806C37.7943 22.1846 37.7943 21.0002 37.7943 20.4276C37.7943 19.855 37.7683 19.2042 37.7162 18.4754C37.6902 17.7727 37.6251 17.174 37.521 16.6794C37.4169 16.1589 37.2737 15.6903 37.0915 15.2739C36.9353 14.8314 36.7271 14.4149 36.4668 14.0245C36.2326 13.634 35.9332 13.2566 35.5688 12.8922C35.2044 12.5278 34.827 12.2285 34.4366 11.9942C34.0461 11.7339 33.6427 11.5257 33.2262 11.3695C32.7837 11.1873 32.3022 11.0442 31.7816 10.9401C31.2871 10.8359 30.6884 10.7709 29.9856 10.7448C29.2568 10.7188 28.6061 10.7058 28.0334 10.7058C27.4868 10.6798 26.3025 10.6667 24.4805 10.6667ZM24.4805 17.148C22.5804 17.148 20.9666 17.8247 19.6391 19.1782C18.3116 20.5057 17.6479 22.1065 17.6479 23.9806C17.6479 25.8807 18.3116 27.4945 19.6391 28.8219C20.9666 30.1494 22.5804 30.8132 24.4805 30.8132C26.3806 30.8132 27.9944 30.1494 29.3219 28.8219C30.6493 27.4945 31.3131 25.8807 31.3131 23.9806C31.3131 22.1065 30.6493 20.5057 29.3219 19.1782C27.9944 17.8247 26.3806 17.148 24.4805 17.148ZM24.4805 28.4315C23.2571 28.4315 22.203 28.002 21.318 27.1431C20.459 26.2581 20.0295 25.2039 20.0295 23.9806C20.0295 22.7572 20.459 21.716 21.318 20.8571C22.203 19.9721 23.2571 19.5296 24.4805 19.5296C25.7038 19.5296 26.745 19.9721 27.604 20.8571C28.4889 21.716 28.9314 22.7572 28.9314 23.9806C28.9314 25.2039 28.4889 26.2581 27.604 27.1431C26.745 28.002 25.7038 28.4315 24.4805 28.4315ZM33.1872 16.8747C33.1872 17.3171 33.031 17.6946 32.7187 18.0069C32.4063 18.3193 32.0289 18.4754 31.5864 18.4754C31.1439 18.4754 30.7665 18.3193 30.4541 18.0069C30.1418 17.6946 29.9856 17.3171 29.9856 16.8747C29.9856 16.4322 30.1418 16.0547 30.4541 15.7424C30.7665 15.43 31.1439 15.2739 31.5864 15.2739C32.0289 15.2739 32.4063 15.43 32.7187 15.7424C33.031 16.0547 33.1872 16.4322 33.1872 16.8747Z" fill="white"/>
</svg>
