<svg width="49" height="48" viewBox="0 0 49 48" fill="none" xmlns="http://www.w3.org/2000/svg">
<g clip-path="url(#clip0)">
<path d="M37.8333 23.9003C37.8333 16.5916 31.8638 10.6667 24.5 10.6667C17.1362 10.6667 11.1667 16.5916 11.1667 23.9003C11.1667 30.5054 16.0424 35.9803 22.4167 36.9731L22.4167 27.7256H19.0312V23.9003H22.4167V20.9848C22.4167 17.6681 24.4073 15.8361 27.4529 15.8361C28.9117 15.8361 30.4375 16.0946 30.4375 16.0946V19.3513H28.7562C27.1 19.3513 26.5833 20.3714 26.5833 21.418V23.9003H30.2812L29.6901 27.7256H26.5833L26.5833 36.9731C32.9575 35.9803 37.8333 30.5054 37.8333 23.9003Z" fill="white"/>
</g>
<defs>
<clipPath id="clip0">
<rect width="26.6667" height="26.3063" fill="white" transform="translate(11.1667 10.6667)"/>
</clipPath>
</defs>
</svg>
