<svg width="49" height="48" viewBox="0 0 49 48" fill="none" xmlns="http://www.w3.org/2000/svg">
<path d="M35.032 18.6946V19.402C35.032 19.4268 35.032 19.4516 35.032 19.4764C35.032 19.5013 35.032 19.5137 35.032 19.5137C35.032 21.6483 34.6224 23.6463 33.8034 25.5079C33.0091 27.3695 31.917 28.9953 30.527 30.3852C29.137 31.7752 27.5113 32.8797 25.6497 33.6988C23.7881 34.4931 21.79 34.8902 19.6554 34.8902C19.6554 34.8902 19.643 34.8902 19.6182 34.8902C19.5934 34.8902 19.581 34.8902 19.581 34.8902C19.5065 34.8902 19.432 34.8902 19.3576 34.8902C19.2831 34.8902 19.2087 34.8902 19.1342 34.8902C17.6698 34.8902 16.2674 34.6917 14.927 34.2945C13.5867 33.8974 12.3333 33.3389 11.1667 32.6191C11.3901 32.6688 11.601 32.706 11.7996 32.7308C12.023 32.7556 12.2464 32.768 12.4698 32.768C12.4946 32.768 12.507 32.768 12.507 32.768C13.748 32.7432 14.9519 32.5074 16.1184 32.0606C17.285 31.589 18.3399 30.9561 19.2831 30.1618C18.0917 30.1618 17.0368 29.8144 16.1184 29.1194C15.2001 28.3996 14.5671 27.506 14.2196 26.4387C14.3686 26.4635 14.5299 26.4883 14.7037 26.5132C14.8774 26.5132 15.0511 26.5132 15.2249 26.5132C15.4731 26.5132 15.7213 26.5008 15.9695 26.4759C16.2177 26.4263 16.4535 26.3642 16.6769 26.2898C15.4111 26.0416 14.3562 25.421 13.5122 24.4282C12.6932 23.4354 12.2836 22.2936 12.2836 21.0029C12.2836 20.9781 12.2836 20.9657 12.2836 20.9657V20.9285C12.6063 21.1022 12.9786 21.2511 13.4006 21.3752C13.8225 21.4993 14.2693 21.5738 14.7409 21.5986C14.0211 21.1022 13.4378 20.4693 12.991 19.6998C12.5442 18.9056 12.3208 18.0368 12.3208 17.0936C12.3208 16.5972 12.3829 16.1256 12.507 15.6788C12.6311 15.2321 12.8173 14.8101 13.0655 14.413C13.686 15.2072 14.3934 15.9394 15.1877 16.6096C16.0068 17.2798 16.8879 17.8631 17.8311 18.3595C18.7991 18.8311 19.8168 19.2158 20.8841 19.5137C21.9514 19.7867 23.0559 19.9604 24.1977 20.0349C24.1977 19.8612 24.1852 19.675 24.1604 19.4764C24.1356 19.2779 24.1232 19.0793 24.1232 18.8807C24.1232 18.8559 24.1232 18.8435 24.1232 18.8435C24.1232 18.8187 24.1232 18.7939 24.1232 18.769C24.1232 17.255 24.6444 15.9767 25.6869 14.9342C26.7542 13.8669 28.0449 13.3333 29.559 13.3333C30.3284 13.3333 31.0606 13.4946 31.7556 13.8173C32.4506 14.1151 33.0463 14.5247 33.5427 15.0459C33.7413 15.0707 34.1881 14.959 34.8831 14.7108C35.6029 14.4626 36.3227 14.1275 37.0425 13.7056C36.9184 14.202 36.6329 14.7356 36.1862 15.3065C35.7642 15.8774 35.243 16.349 34.6224 16.7213C34.8955 16.7461 35.3298 16.6841 35.9255 16.5352C36.5461 16.3614 37.1666 16.138 37.7871 15.865C37.936 15.7657 37.7251 16.0511 37.1542 16.7213C36.6081 17.3915 35.9131 18.0492 35.0692 18.6946H35.032Z" fill="white"/>
</svg>
