<svg width="20" height="20" viewBox="0 0 20 20" fill="none" xmlns="http://www.w3.org/2000/svg">
<path fill-rule="evenodd" clip-rule="evenodd" d="M6.27669 5.18623C6.97285 3.35255 8.65548 2.69474 9.9227 2.69474C11.1899 2.69474 12.8725 3.35255 13.5689 5.18623H6.27669ZM17.5777 7.08319L16.605 15.7042C16.3017 16.5683 15.6685 17.0336 14.6835 17.1256L5.32138 17.1263C4.32475 17.034 3.71681 16.5819 3.41014 15.7043L2.43735 7.08302L6.31563 7.07918L17.5777 7.08319ZM18.8141 5.19842L15.5416 5.18673C14.7717 2.16014 12.1564 0.803619 9.8785 0.803619H9.83494C7.57729 0.820315 5.00199 2.18335 4.27451 5.1864L1.28015 5.18924L1.20924 5.19658C0.713546 5.29141 0.456954 5.66723 0.50592 6.23188L1.62084 16.1327L1.64325 16.2364C2.28457 18.2005 3.4882 19.1964 5.22091 19.1964H14.7941C16.5024 19.1964 17.7395 18.1728 18.3718 16.2363L18.3885 16.1852L19.4826 6.24974C19.5716 5.70663 19.3153 5.30377 18.8141 5.19842V5.19842Z" fill="#2C293B"/>
</svg>
